MoBL_ARMS_module2_4_allmuscles_shoulder_states	
version=1	
nRows=462	
nColumns=2	
inDegrees=yes	
	
# SIMM Motion File Header:	
name MoBL_ARMS_module2_4_allmuscles_shoulder_states	
datacolumns 2	
datarows 462	
otherdata 1	
range 3.217030746 4.156055463	
endheader	
time	shoulder_elv
3.217030746	13.43877244
3.218734357	13.49528547
3.220437967	13.55188245
3.222141578	13.60856187
3.223845188	13.66532193
3.225548799	13.72216133
3.227252409	13.7790788
3.22895602	13.83607408
3.23065963	13.89314712
3.232363241	13.95029856
3.234066851	14.00752872
3.235770462	14.06483834
3.237474072	14.12222776
3.239177683	14.17969768
3.240881293	14.23724852
3.242584904	14.29488154
3.244288514	14.35259819
3.245992125	14.41040081
3.247695735	14.46829143
3.249399345	14.52627242
3.251102956	14.58434551
3.252806566	14.64251249
3.254510177	14.70077427
3.256213787	14.75913175
3.257917398	14.81758514
3.259621008	14.87613478
3.261324619	14.93478035
3.263028229	14.99352176
3.26473184	15.05235846
3.26643545	15.11129035
3.268523626	15.18365443
3.270611801	15.25616097
3.272344465	15.31643098
3.27407713	15.37679888
3.276920803	15.47608614
3.278354452	15.52624075
3.280115531	15.58794033
3.28271202	15.67908804
3.283930315	15.72192891
3.28595029	15.79306332
3.288791532	15.89333543
3.290624708	15.95816471
3.292457884	16.02309831
3.29429106	16.0881351
3.296124236	16.15327444
3.298607636	16.24167924
3.300273302	16.30107646
3.302357829	16.37552334
3.303990398	16.43391574
3.305622968	16.49238269
3.307679828	16.56614927
3.309736689	16.64002946
3.31179355	16.71402116
3.313867556	16.78873953
3.31597728	16.86485461
3.317840666	16.93217234
3.319704051	16.99957191
3.321567437	17.06705165
3.324108383	17.15919275
3.325668538	17.21583735
3.327760588	17.29187318
3.329554242	17.35713458
3.331347896	17.42245876
3.333141551	17.48784402
3.334935205	17.55328782
3.336728859	17.6187884
3.338522514	17.68434335
3.340316168	17.74995107
3.342109822	17.81560923
3.343903477	17.88131629
3.345697131	17.94706994
3.347490785	18.0128686
3.349644991	18.09194994
3.351401439	18.15647308
3.353157886	18.22103303
3.354914334	18.28562836
3.357062715	18.36468255
3.35867474	18.42403175
3.360286766	18.4834061
3.362578915	18.56787219
3.364658449	18.64454217
3.366374207	18.70782624
3.368089964	18.77113176
3.369805721	18.83445746
3.372141422	18.92069291
3.373360388	18.96570995
3.375266187	19.03610644
3.378869289	19.16923857
3.380471831	19.22846477
3.382525009	19.30435469
3.384764378	19.38713437
3.386442744	19.44917962
3.38812111	19.51122543
3.390348757	19.59357551
3.3922873	19.66523331
3.394225843	19.73688448
3.396164386	19.80852582
3.398102929	19.88015554
3.400041472	19.95177059
3.401980015	20.02336952
3.403918558	20.09494996
3.405857101	20.16651133
3.407795644	20.23805187
3.409734187	20.30957138
3.413769154	20.45836253
3.414908027	20.50034152
3.4160469	20.54231279
3.418770186	20.64264668
3.420360887	20.70123691
3.422903849	20.79488297
3.424390881	20.84963597
3.426472437	20.92627259
3.428419756	20.99796387
3.430780084	21.08486225
3.433140412	21.17177348
3.434668244	21.22804265
3.436196077	21.28432563
3.438799513	21.38027157
3.44020711	21.43217139
3.442728072	21.52517277
3.444592488	21.59400073
3.447708367	21.70913189
3.448779252	21.74873462
3.450448765	21.81051287
3.45475821	21.97021096
3.45610169	22.02007137
3.457445169	22.06996856
3.459758369	22.15597105
3.462466462	22.25680419
3.464972136	22.35024844
3.46603736	22.39001832
3.4679445	22.46128748
3.471517684	22.59504775
3.472751402	22.64130228
3.47398512	22.68759272
3.476824749	22.79427553
3.478387032	22.85305021
3.481221355	22.95982469
3.482764425	23.0180325
3.485681582	23.12821931
3.487167724	23.18442575
3.490081784	23.29477277
3.491777681	23.35907222
3.495055094	23.48349472
3.496199626	23.52699347
3.498565103	23.61696999
3.501565673	23.7312418
3.502587821	23.7702026
3.504313179	23.83600397
3.507877898	23.97209226
3.508986966	24.01446831
3.511186011	24.09853665
3.514326335	24.21868578
3.515395639	24.2596213
3.517025597	24.32204025
3.521188986	24.48157398
3.522395074	24.52781133
3.524842248	24.62165124
3.527994461	24.74256121
3.529061139	24.78348204
3.530704605	24.84653296
3.534774482	25.00267236
3.535970816	25.04856515
3.538396881	25.14161916
3.541531172	25.26180087
3.542593128	25.30250857
3.544240398	25.36563812
3.548230459	25.5184637
3.549441415	25.56481658
3.551883461	25.6582464
3.555034168	25.7786864
3.556109238	25.81975321
3.557723069	25.88137056
3.561852551	26.03886193
3.563192669	26.0899128
3.565780253	26.18839833
3.568652367	26.29757176
3.570392238	26.36362936
3.573004367	26.46269098
3.574730557	26.52807559
3.577211863	26.62194969
3.578868946	26.68456376
3.581291555	26.77598847
3.583077042	26.84327889
3.585595452	26.93805593
3.58697872	26.9900444
3.589090595	27.06931917
3.592101224	27.18212194
3.594065058	27.25556603
3.596028893	27.32889955
3.597992727	27.40211816
3.599956561	27.47522024
3.602532854	27.57093673
3.603646823	27.61225835
3.605684202	27.68772736
3.609402509	27.82510082
3.610652568	27.87117819
3.611902628	27.91720022
3.614939807	28.02878305
3.616383181	28.0816929
3.619313616	28.18887303
3.621447206	28.26670119
3.625127944	28.4005415
3.626447528	28.44839188
3.627767113	28.49617004
3.630162972	28.58273035
3.632463403	28.6656118
3.635116493	28.76091036
3.636145632	28.79779262
3.638090512	28.86736128
3.641530027	28.98996287
3.642728091	29.03253707
3.644206229	29.0849683
3.647459318	29.19998233
3.651107799	29.32834421
3.652400185	29.373651
3.653692571	29.4188708
3.656275953	29.50899935
3.658227284	29.57684208
3.661335354	29.6844762
3.662403434	29.72134296
3.664022708	29.77711448
3.668242623	29.92176765
3.669473928	29.96378506
3.67195287	30.04811245
3.675203898	30.15816132
3.676302683	30.19521554
3.677912051	30.24935801
3.682894565	30.41599088
3.684113225	30.45651696
3.686443242	30.53374531
3.689851425	30.64609888
3.691015815	30.68431634
3.692545114	30.73437989
3.696421129	30.86059495
3.698763267	30.93638976
3.700534137	30.99346033
3.702897363	31.06929771
3.704523418	31.12126447
3.706578899	31.18670164
3.708762742	31.25591487
3.710946586	31.32480458
3.71313043	31.39337081
3.714799243	31.44554581
3.716468057	31.49752995
3.719122961	31.5798325
3.720610792	31.62574081
3.723187949	31.70489275
3.725388811	31.77211596
3.728288135	31.86014518
3.729304621	31.8908655
3.731083616	31.94445022
3.734578812	32.04905654
3.735653786	32.08104916
3.73768625	32.14130337
3.741219109	32.24530224
3.742401514	32.27990029
3.743949616	32.32503754
3.7477228	32.43428019
3.750016657	32.5001528
3.751859484	32.55277402
3.754231285	32.62010366
3.755566776	32.65781735
3.757579327	32.7143794
3.761104115	32.81264971
3.762611079	32.85435225
3.764790751	32.91433971
3.768641325	33.019343
3.769998348	33.05605388
3.771355371	33.09260772
3.77360164	33.15277157
3.776322865	33.22507829
3.778492664	33.28227492
3.780183092	33.32655293
3.78187352	33.37058156
3.784330648	33.43413386
3.78681071	33.49773921
3.787987537	33.52773088
3.790018594	33.57920225
3.794106762	33.68168346
3.795382628	33.71335917
3.796658495	33.74488701
3.799269308	33.80894134
3.801172438	33.85524078
3.804185887	33.92787022
3.805211801	33.95240575
3.806995616	33.99483399
3.810504578	34.07742882
3.811611262	34.1032395
3.813836964	34.15479894
3.81695869	34.22632521
3.81802327	34.25050641
3.819694882	34.28825739
3.823562984	34.37458719
3.824861808	34.40325257
3.827532714	34.46168749
3.83087602	34.53385619
3.832005713	34.5579962
3.833631771	34.59252304
3.838455705	34.69342348
3.839893404	34.72305138
3.842844991	34.78323485
3.846230344	34.85119343
3.847723253	34.88080033
3.849748952	34.92061384
3.85253576	34.9747134
3.854310399	35.00875313
3.856085038	35.04247689
3.85837521	35.08552316
3.860345561	35.12213378
3.862315912	35.15834531
3.864286263	35.19416361
3.866256615	35.22958077
3.868226966	35.26460351
3.870197317	35.29922309
3.872167668	35.3334472
3.87413802	35.36726606
3.876108371	35.40068865
3.878078722	35.43370382
3.87982119	35.4625698
3.881563658	35.49111737
3.883721362	35.52603267
3.885879066	35.56046026
3.887645511	35.58828697
3.889411955	35.61578505
3.891593925	35.64930386
3.893775895	35.68232204
3.895436953	35.70712821
3.89709801	35.73164409
3.899434623	35.76564585
3.901771236	35.79907578
3.903301061	35.82065843
3.904830887	35.84199468
3.907501767	35.87866114
3.909636884	35.90743593
3.911772	35.93573879
3.913487765	35.95813449
3.915203529	35.98022592
3.917421803	36.008329
3.919640076	36.03591883
3.921291937	36.05612316
3.922943799	36.0760416
3.92527034	36.10360176
3.92734396	36.12768054
3.929417581	36.15129302
3.931104951	36.17016752
3.932792322	36.18872847
3.935020891	36.21276401
3.93724946	36.23624368
3.938872711	36.25299747
3.940495963	36.26944936
3.942884022	36.29310456
3.944905355	36.31260793
3.946926688	36.33163399
3.948948021	36.35016937
3.950656769	36.36545819
3.952365518	36.38038781
3.954535532	36.39883005
3.956705546	36.41668057
3.958385142	36.43009108
3.960064738	36.44313786
3.962326152	36.46012922
3.964587566	36.47644743
3.966132355	36.48720857
3.967677143	36.49764809
3.970224203	36.51415867
3.972310037	36.52701943
3.974395871	36.53928465
3.976141028	36.54907918
3.977886184	36.55845117
3.980021585	36.56933358
3.982156985	36.57957317
3.983842279	36.58719174
3.985527574	36.59440636
3.987752949	36.60330494
3.989978324	36.6114911
3.991597058	36.61699072
3.993215792	36.62211232
3.995565328	36.62886521
3.997493548	36.63380652
3.999421767	36.63820138
4.001349987	36.64205358
4.003278206	36.64535755
4.005206426	36.64811806
4.007134645	36.65032963
4.009062865	36.65199807
4.010991084	36.65311782
4.012919304	36.65369569
4.014847523	36.6537258
4.016775743	36.65321581
4.018703962	36.65215936
4.020632182	36.65056497
4.022560401	36.64842577
4.024488621	36.64575165
4.02641684	36.64253549
4.02834506	36.63878843
4.03027328	36.63450242
4.032201499	36.6296895
4.033926439	36.62492961
4.03565138	36.61974931
4.037772532	36.6127974
4.039893684	36.60521076
4.041637922	36.59849201
4.04338216	36.5913469
4.045528099	36.58196599
4.047674037	36.57194081
4.049349275	36.56366154
4.051024513	36.55499198
4.053273104	36.5427363
4.055521694	36.52977789
4.057136364	36.52003431
4.058751033	36.50993106
4.061123949	36.494425
4.063061327	36.48118807
4.064998705	36.46742965
4.066936083	36.45315521
4.068873461	36.43836065
4.070810838	36.42305196
4.072748216	36.40722456
4.074685594	36.39088506
4.076622972	36.37402837
4.07856035	36.35666155
4.080497728	36.33877877
4.082435105	36.32038743
4.084372483	36.30148099
4.086309861	36.28206729
4.088247239	36.26213915
4.090184617	36.24170489
4.092121995	36.22075676
4.094059372	36.19930362
4.09599675	36.17733715
4.097934128	36.15486669
4.099871506	36.13188328
4.101808884	36.10839655
4.103746261	36.08439687
4.105683639	36.05989406
4.107621017	36.03487797
4.109558395	36.00935873
4.111495773	35.98332592
4.113433151	35.95678997
4.115370528	35.92974033
4.117307906	35.90218761
4.119245284	35.87412119
4.121182662	35.84555176
4.12312004	35.81646884
4.125057418	35.7868832
4.126994795	35.75678475
4.128932173	35.72618417
4.130869551	35.69507177
4.132806929	35.66345801
4.134744307	35.63133379
4.136681685	35.59870924
4.138619062	35.56557602
4.14055644	35.53194381
4.142493818	35.49780504
4.144431196	35.46316882
4.146368574	35.42802837
4.148305952	35.3923921
4.150243329	35.35625404
4.152180707	35.31962186
4.154118085	35.28249039
4.156055463	35.24486653
